HIERARCHY
ROOT hip
{
	OFFSET 0.000000 0.000000 0.000000 
	CHANNELS 6 Xposition Yposition Zposition Xrotation Zrotation Yrotation
	JOINT abdomen
	{
		OFFSET 0.000000 3.402643 0.000000 
		CHANNELS 3 Xrotation Zrotation Yrotation
		JOINT chest
		{
			OFFSET 0.000000 8.438565 -0.680529 
			CHANNELS 3 Xrotation Zrotation Yrotation
			JOINT neck
			{
				OFFSET 0.000000 10.207942 -0.272212 
				CHANNELS 3 Xrotation Zrotation Yrotation
				JOINT head
				{
					OFFSET 0.000000 3.130431 0.000000 
					CHANNELS 3 Xrotation Zrotation Yrotation
					End Site
					{
						OFFSET 0.000000 3.130435 0.000000 
					}
				}
			}
			JOINT lCollar
			{
				OFFSET 3.470700 6.669187 -0.816635 
				CHANNELS 3 Yrotation Zrotation Xrotation
				JOINT lShldr
				{
					OFFSET 3.198488 0.000000 0.000000 
					CHANNELS 3 Zrotation Yrotation Xrotation
					JOINT lForeArm
					{
						OFFSET 10.139888 0.000000 0.000000 
						CHANNELS 3 Yrotation Zrotation Xrotation
						JOINT lHand
						{
							OFFSET 8.370511 0.000000 0.000000 
							CHANNELS 3 Zrotation Yrotation Xrotation
							End Site
							{
								OFFSET 4.083176 0.000000 0.000000 
							}
						}
					}
				}
			}
			JOINT rCollar
			{
				OFFSET -3.470700 6.669187 -0.816635 
				CHANNELS 3 Yrotation Zrotation Xrotation
				JOINT rShldr
				{
					OFFSET -3.198488 0.000000 0.000000 
					CHANNELS 3 Zrotation Yrotation Xrotation
					JOINT rForeArm
					{
						OFFSET -10.139888 0.000000 0.000000 
						CHANNELS 3 Yrotation Zrotation Xrotation
						JOINT rHand
						{
							OFFSET -8.370511 0.000000 0.000000 
							CHANNELS 3 Zrotation Yrotation Xrotation
							End Site
							{
								OFFSET -4.083176 0.000000 0.000000 
							}
						}
					}
				}
			}
		}
	}
	JOINT lThigh
	{
		OFFSET 5.308129 -1.633274 1.361059 
		CHANNELS 3 Xrotation Zrotation Yrotation
		JOINT lShin
		{
			OFFSET -2.041588 -20.007561 0.000000 
			CHANNELS 3 Xrotation Zrotation Yrotation
			JOINT lFoot
			{
				OFFSET 0.000000 -19.190928 -1.224953 
				CHANNELS 3 Xrotation Yrotation Zrotation
				End Site
				{
					OFFSET 0.000000 -2.449906 4.627600 
				}
			}
		}
	}
	JOINT rThigh
	{
		OFFSET -5.308129 -1.633274 1.361059 
		CHANNELS 3 Xrotation Zrotation Yrotation
		JOINT rShin
		{
			OFFSET 2.041588 -20.007561 0.000000 
			CHANNELS 3 Xrotation Zrotation Yrotation
			JOINT rFoot
			{
				OFFSET 0.000000 -19.190928 -1.224953 
				CHANNELS 3 Xrotation Yrotation Zrotation
				End Site
				{
					OFFSET 0.000000 -2.449906 4.627600 
				}
			}
		}
	}
}
MOTION
Frames: 13
Frame Time: 0.016667
-0.958613 52.425835 1.929276 3.439348 4.846091 20.899170 43.045940 -2.224808 -5.203054 1.259014 0.175550 4.511735 -23.546709 0.558889 -0.222826 -1.602424 1.628637 -14.165975 -3.704031 -14.640145 -0.780372 -64.244865 32.253777 -45.000000 -115.615623 -5.000000 -18.564602 -25.030710 -19.616688 12.723494 9.828057 9.665586 -0.512689 70.257668 -3.585113 -18.010084 111.986801 5.000000 -1.694610 37.169186 1.485421 -5.270744 -29.057045 -7.946995 -9.671780 29.194349 -9.334747 -6.314240 -11.122714 8.409384 -0.822542 23.083536 6.882626 -26.687481 89.836334 0.265003 3.126437 20.442652 -4.361414 15.582871 
-0.934784 51.989761 6.088052 3.465671 2.632804 21.635366 42.390202 0.708342 -4.866312 0.855740 0.468480 3.027438 -23.212919 0.064668 -0.029538 -1.946160 1.466167 -12.865541 -3.584885 -15.829864 -0.846943 -63.122471 27.708330 -43.356941 -112.465324 -5.000000 -15.081688 -25.799805 -20.382378 13.366756 9.586496 11.840357 -0.628892 69.129288 -6.489732 -22.502426 110.288490 5.000000 -3.809351 36.164791 0.375659 -4.404640 -29.378273 -5.583652 -13.318777 37.467731 -9.993611 -10.077120 -12.444094 9.869138 4.089409 17.018591 5.944678 -28.272648 102.178360 0.097975 0.737072 16.557432 -3.693217 13.293939 
-0.753281 51.989120 10.079770 3.554896 1.808689 20.714220 42.656696 2.114108 -3.956938 0.368319 0.410097 1.621139 -23.722643 -0.597511 0.228668 -2.161760 1.292979 -11.262591 -3.574177 -16.571590 -0.875813 -61.065735 22.293056 -36.789810 -109.928886 -5.000000 -11.516581 -26.128614 -21.223572 12.709028 8.977674 13.195984 -0.703301 67.693489 -10.281739 -27.200298 110.435051 5.000000 -6.110310 36.288654 0.155179 -4.801516 -26.921509 -3.944699 -13.480982 41.507744 -9.999292 -10.511498 -15.752666 8.844796 4.750638 9.636110 2.703056 -28.138393 112.579399 -0.196414 0.370863 12.531106 -3.217225 10.316217 
-0.466662 52.278755 13.960126 3.707186 1.924299 18.682926 43.551056 2.454043 -2.640482 -0.175721 0.117187 0.253926 -24.805574 -1.369681 0.543161 -2.295643 1.117396 -9.464693 -3.649844 -17.020157 -0.901750 -59.059799 16.061062 -28.801350 -108.185745 -5.000000 -8.171618 -26.129719 -22.151644 11.156981 8.118962 13.995778 -0.747023 66.225471 -14.748823 -32.001415 112.022827 5.000000 -8.972590 37.186069 0.534426 -6.024618 -22.503742 -2.869700 -11.189581 42.684799 -8.606461 -8.647504 -20.382496 6.380557 2.407839 1.275691 -1.849028 -26.405634 121.692726 -0.917454 1.256457 8.468475 -2.830505 6.782399 
-0.206913 52.602516 17.878422 3.685035 1.418261 15.893825 44.322216 2.822666 -0.649588 -0.702246 -0.058587 -1.044931 -25.639626 -2.057806 0.825248 -2.259486 0.842321 -7.510529 -3.827956 -16.980501 -0.909058 -58.272865 10.534260 -22.007055 -107.735008 -5.000000 -5.652963 -26.172266 -23.054296 9.750016 7.242371 14.348221 -0.755818 65.122879 -19.156418 -36.165638 114.031601 5.000000 -12.111161 37.705933 0.914197 -7.271573 -17.433956 -1.160618 -8.557938 42.759377 -6.738061 -6.838065 -24.693874 4.937424 0.260489 -7.534934 -4.924541 -23.614946 129.284637 -1.865241 2.138183 4.556579 -3.019297 3.693511 
-0.054664 53.062775 21.948420 3.239321 -1.615499 10.043015 44.607201 3.448260 4.052934 -1.148253 0.214769 -2.050771 -25.520273 -2.396577 0.936084 -1.576092 0.155658 -4.990242 -4.404593 -14.961081 -0.808892 -59.009003 8.603356 -18.385691 -110.315498 -5.000000 -4.413429 -26.444836 -23.839636 8.857546 6.284042 12.906018 -0.667097 64.232491 -22.953899 -37.792908 116.374115 5.000000 -15.112431 36.728821 1.112525 -8.734410 -9.763883 3.397650 -4.228238 38.298946 -6.392270 -5.585946 -27.260098 6.354734 0.616145 -17.494440 -2.741218 -19.162134 130.760208 -3.222730 3.419475 1.295436 -5.952268 2.291001 
0.097586 53.523026 26.018417 3.094295 -4.674947 4.203348 45.129032 4.030178 8.768292 -1.600134 0.478173 -3.056647 -25.401934 -2.735330 1.046972 -0.912563 -0.575632 -2.480638 -4.990270 -12.952860 -0.688561 -59.862598 6.724990 -14.754059 -112.997322 -5.000000 -2.612413 -26.698545 -24.631708 7.973148 5.342058 11.461652 -0.599768 63.431126 -26.786890 -39.398598 119.127136 5.000000 -18.570082 35.765423 1.261694 -10.204907 -1.716794 7.344238 0.661616 33.807682 -5.982612 -4.352639 -29.850925 7.647617 1.014723 -27.220896 0.186586 -15.176262 132.196335 -4.589823 4.673134 -2.102457 -8.847861 0.690524 
-0.015111 54.132477 30.418583 2.605184 -7.636549 0.383970 45.567322 5.041864 11.803402 -1.598965 1.267827 -4.190022 -25.179012 -2.455970 0.935200 -0.278005 -1.201086 0.683648 -5.187905 -10.534318 -0.557664 -60.156883 5.818615 -13.018752 -115.615242 -4.377182 -1.316973 -26.503048 -24.759171 7.009700 4.843445 10.447429 -0.543567 63.557842 -30.547508 -42.372631 120.894127 5.000000 -21.053257 35.802883 0.359473 -10.244514 6.745205 10.134238 6.066241 29.068182 -5.170027 -3.228033 -27.560505 7.148710 -1.384897 -33.568565 4.579958 -12.452141 128.170624 -4.468354 5.206352 -4.402982 -9.619437 0.388454 
-0.194045 54.779228 34.901306 2.139422 -10.601755 -2.922657 46.072449 6.128958 14.432545 -1.492930 2.192460 -5.354014 -24.943790 -2.037630 0.762972 0.320981 -1.831455 4.005915 -5.292820 -8.008461 -0.422676 -60.291515 5.162803 -11.759512 -118.231842 -1.646274 -0.002368 -26.197412 -24.735310 6.018523 4.454372 9.559979 -0.497646 64.140686 -34.269165 -45.000000 122.537422 5.000000 -23.400377 36.076118 -0.807261 -9.930161 15.503341 11.980903 11.817459 24.279051 -4.210789 -2.177795 -24.108244 6.136800 -4.385113 -38.954170 9.433163 -10.335688 122.765503 -3.910656 5.523579 -6.453410 -9.787397 0.470375 
-0.368673 55.362782 39.432274 2.001235 -12.813197 -5.528872 46.088314 7.033011 15.891004 -1.493327 3.135113 -6.295232 -24.257772 -1.375531 0.504316 1.243822 -2.528841 7.184497 -5.746986 -5.569300 -0.305480 -60.697048 4.754631 -10.852789 -120.660385 0.576448 1.335833 -25.911406 -24.656788 5.335333 4.101266 9.198447 -0.486994 64.335823 -37.755245 -45.000000 124.215584 5.000000 -25.524466 36.286350 -1.628066 -9.812410 23.378601 12.343875 17.488108 19.551964 -3.367724 -1.363780 -13.402121 4.415737 -6.748288 -43.425713 13.505282 -8.716274 116.453835 -3.568509 6.530573 -8.059493 -10.135356 0.780790 
-0.536847 55.851543 44.035641 2.190868 -13.881218 -7.104530 45.184460 7.711671 15.600606 -1.638008 4.135721 -6.926146 -22.910799 -0.345574 0.131297 2.665802 -3.326002 10.163774 -6.694459 -3.236983 -0.194123 -61.487343 4.705422 -10.460208 -122.773964 2.198734 2.510225 -25.665552 -24.534237 5.124723 3.783068 9.656857 -0.512304 63.665531 -40.957699 -45.000000 125.662903 5.000000 -27.050650 36.440327 -1.913764 -9.991300 29.585709 11.113635 22.504124 14.922875 -2.800024 -0.865656 8.095624 1.922951 -7.378401 -46.614922 16.219614 -7.386326 108.754181 -3.322100 8.595873 -9.041302 -10.678781 1.492386 
-0.705015 56.340313 48.638992 2.404444 -14.941616 -8.696548 44.288891 8.386172 15.283094 -1.796283 5.135010 -7.549469 -21.564566 0.687335 -0.222503 4.052474 -4.194601 13.121694 -7.645630 -0.908228 -0.054200 -62.270546 4.665210 -10.058944 -124.918709 3.717682 3.802035 -25.409012 -24.402578 4.902727 3.474838 10.115263 -0.536021 63.120068 -44.164619 -45.000000 127.171494 5.000000 -28.655260 36.594627 -2.204504 -10.163746 35.642220 9.376171 27.353474 10.291376 -2.174901 -0.411749 29.577099 -0.627801 -7.166515 -49.811020 18.993090 -6.169742 101.068153 -2.774246 10.640903 -9.976618 -11.179652 2.179679 
-0.712779 56.531948 53.089905 3.144408 -13.908427 -9.187646 42.556068 8.185134 13.339732 -1.745577 5.749823 -8.799083 -20.654501 1.587070 -0.477315 4.378604 -4.700154 15.756982 -8.094374 0.574246 0.022180 -62.530216 3.637148 -9.155294 -126.312325 5.000000 5.054374 -26.434557 -24.641787 6.457403 2.864177 10.583473 -0.562002 62.800503 -44.699665 -45.000000 127.656754 5.000000 -29.227329 35.126995 -1.897038 -9.283072 35.891399 7.824104 25.920683 14.843493 -1.413527 -0.266897 27.032942 -0.480048 -5.153020 -51.343979 18.534243 -3.097906 92.264664 -1.084212 12.151980 -10.519519 -11.953501 2.418739 
